{
    "asset" : {
        "generator" : "Khronos glTF Blender I/O v3.3.27",
        "version" : "2.0"
    },
    "scene" : 0,
    "scenes" : [
        {
            "name" : "Scene",
            "nodes" : [
                0,
                1
            ]
        }
    ],
    "nodes" : [
        {
            "mesh" : 0,
            "name" : "_1_lod0",
            "scale" : [
                0.7956205606460571,
                0.7956206202507019,
                0.7956205606460571
            ],
            "translation" : [
                0.934941828250885,
                2.624786138534546,
                -0.9212983846664429
            ]
        },
        {
            "mesh" : 1,
            "name" : "_2_lod0",
            "rotation" : [
                0,
                -0.7071068286895752,
                0,
                0.7071067094802856
            ],
            "scale" : [
                0.8641072511672974,
                0.8641071915626526,
                0.8641072511672974
            ],
            "translation" : [
                -0.7753039598464966,
                1.0879956483840942,
                -1.046707272529602
            ]
        }
    ],
    "materials" : [
        {
            "doubleSided" : true,
            "name" : "coffee",
            "pbrMetallicRoughness" : {
                "baseColorTexture" : {
                    "index" : 0
                }
            }
        },
        {
            "name" : "champagne",
            "pbrMetallicRoughness" : {
                "baseColorTexture" : {
                    "index" : 1
                }
            }
        },
        {
            "name" : "cab_assembly",
            "pbrMetallicRoughness" : {
                "baseColorTexture" : {
                    "index" : 2
                }
            }
        }
    ],
    "meshes" : [
        {
            "name" : "Mesh_0.805",
            "primitives" : [
                {
                    "attributes" : {
                        "POSITION" : 0,
                        "NORMAL" : 1,
                        "TEXCOORD_0" : 2
                    },
                    "indices" : 3,
                    "material" : 0
                },
                {
                    "attributes" : {
                        "POSITION" : 4,
                        "NORMAL" : 5,
                        "TEXCOORD_0" : 6
                    },
                    "indices" : 7,
                    "material" : 1
                },
                {
                    "attributes" : {
                        "POSITION" : 8,
                        "NORMAL" : 9,
                        "TEXCOORD_0" : 10
                    },
                    "indices" : 11,
                    "material" : 2
                }
            ]
        },
        {
            "name" : "Mesh_0.843",
            "primitives" : [
                {
                    "attributes" : {
                        "POSITION" : 12,
                        "NORMAL" : 13,
                        "TEXCOORD_0" : 14
                    },
                    "indices" : 15,
                    "material" : 0
                },
                {
                    "attributes" : {
                        "POSITION" : 16,
                        "NORMAL" : 17,
                        "TEXCOORD_0" : 18
                    },
                    "indices" : 19,
                    "material" : 1
                },
                {
                    "attributes" : {
                        "POSITION" : 20,
                        "NORMAL" : 21,
                        "TEXCOORD_0" : 22
                    },
                    "indices" : 23,
                    "material" : 2
                }
            ]
        }
    ],
    "textures" : [
        {
            "sampler" : 0,
            "source" : 0
        },
        {
            "sampler" : 0,
            "source" : 1
        },
        {
            "sampler" : 0,
            "source" : 2
        }
    ],
    "images" : [
        {
            "mimeType" : "image/png",
            "name" : "food_colony01_03_diff_0",
            "uri" : "food_colony01_03_diff_0.png"
        },
        {
            "mimeType" : "image/png",
            "name" : "food_08_diff_0",
            "uri" : "food_08_diff_0.png"
        },
        {
            "mimeType" : "image/png",
            "name" : "heavy_08_diff_0",
            "uri" : "heavy_08_diff_0.png"
        }
    ],
    "accessors" : [
        {
            "bufferView" : 0,
            "componentType" : 5126,
            "count" : 590,
            "max" : [
                1.0059994459152222,
                0.2538275420665741,
                2.6842973232269287
            ],
            "min" : [
                -3.9335989952087402,
                -0.5646145343780518,
                -0.8161075711250305
            ],
            "type" : "VEC3"
        },
        {
            "bufferView" : 1,
            "componentType" : 5126,
            "count" : 590,
            "type" : "VEC3"
        },
        {
            "bufferView" : 2,
            "componentType" : 5126,
            "count" : 590,
            "type" : "VEC2"
        },
        {
            "bufferView" : 3,
            "componentType" : 5123,
            "count" : 1332,
            "type" : "SCALAR"
        },
        {
            "bufferView" : 4,
            "componentType" : 5126,
            "count" : 9132,
            "max" : [
                -1.723104476928711,
                1.2277021408081055,
                2.7079215049743652
            ],
            "min" : [
                -3.828338146209717,
                -4.43549919128418,
                0.63747239112854
            ],
            "type" : "VEC3"
        },
        {
            "bufferView" : 5,
            "componentType" : 5126,
            "count" : 9132,
            "type" : "VEC3"
        },
        {
            "bufferView" : 6,
            "componentType" : 5126,
            "count" : 9132,
            "type" : "VEC2"
        },
        {
            "bufferView" : 7,
            "componentType" : 5123,
            "count" : 18510,
            "type" : "SCALAR"
        },
        {
            "bufferView" : 8,
            "componentType" : 5126,
            "count" : 11742,
            "max" : [
                1.7555090188980103,
                0.23132029175758362,
                3.403149127960205
            ],
            "min" : [
                -3.9960076808929443,
                -4.719477653503418,
                -0.9441869854927063
            ],
            "type" : "VEC3"
        },
        {
            "bufferView" : 9,
            "componentType" : 5126,
            "count" : 11742,
            "type" : "VEC3"
        },
        {
            "bufferView" : 10,
            "componentType" : 5126,
            "count" : 11742,
            "type" : "VEC2"
        },
        {
            "bufferView" : 11,
            "componentType" : 5123,
            "count" : 23631,
            "type" : "SCALAR"
        },
        {
            "bufferView" : 12,
            "componentType" : 5126,
            "count" : 698,
            "max" : [
                2.871263027191162,
                2.0121817588806152,
                1.3858463764190674
            ],
            "min" : [
                -0.6062943339347839,
                1.283835530281067,
                -3.4241347312927246
            ],
            "type" : "VEC3"
        },
        {
            "bufferView" : 13,
            "componentType" : 5126,
            "count" : 698,
            "type" : "VEC3"
        },
        {
            "bufferView" : 14,
            "componentType" : 5126,
            "count" : 698,
            "type" : "VEC2"
        },
        {
            "bufferView" : 15,
            "componentType" : 5123,
            "count" : 1524,
            "type" : "SCALAR"
        },
        {
            "bufferView" : 16,
            "componentType" : 5126,
            "count" : 13064,
            "max" : [
                2.893014907836914,
                2.528797149658203,
                -1.5234190225601196
            ],
            "min" : [
                -0.5408596992492676,
                -2.6152138710021973,
                -3.5157957077026367
            ],
            "type" : "VEC3"
        },
        {
            "bufferView" : 17,
            "componentType" : 5126,
            "count" : 13064,
            "type" : "VEC3"
        },
        {
            "bufferView" : 18,
            "componentType" : 5126,
            "count" : 13064,
            "type" : "VEC2"
        },
        {
            "bufferView" : 19,
            "componentType" : 5123,
            "count" : 26565,
            "type" : "SCALAR"
        },
        {
            "bufferView" : 20,
            "componentType" : 5126,
            "count" : 11117,
            "max" : [
                3.5362284183502197,
                2.799677848815918,
                1.451343059539795
            ],
            "min" : [
                -0.9465715885162354,
                -2.584324836730957,
                -3.5307655334472656
            ],
            "type" : "VEC3"
        },
        {
            "bufferView" : 21,
            "componentType" : 5126,
            "count" : 11117,
            "type" : "VEC3"
        },
        {
            "bufferView" : 22,
            "componentType" : 5126,
            "count" : 11117,
            "type" : "VEC2"
        },
        {
            "bufferView" : 23,
            "componentType" : 5123,
            "count" : 22407,
            "type" : "SCALAR"
        }
    ],
    "bufferViews" : [
        {
            "buffer" : 0,
            "byteLength" : 7080,
            "byteOffset" : 0,
            "target" : 34962
        },
        {
            "buffer" : 0,
            "byteLength" : 7080,
            "byteOffset" : 7080,
            "target" : 34962
        },
        {
            "buffer" : 0,
            "byteLength" : 4720,
            "byteOffset" : 14160,
            "target" : 34962
        },
        {
            "buffer" : 0,
            "byteLength" : 2664,
            "byteOffset" : 18880,
            "target" : 34963
        },
        {
            "buffer" : 0,
            "byteLength" : 109584,
            "byteOffset" : 21544,
            "target" : 34962
        },
        {
            "buffer" : 0,
            "byteLength" : 109584,
            "byteOffset" : 131128,
            "target" : 34962
        },
        {
            "buffer" : 0,
            "byteLength" : 73056,
            "byteOffset" : 240712,
            "target" : 34962
        },
        {
            "buffer" : 0,
            "byteLength" : 37020,
            "byteOffset" : 313768,
            "target" : 34963
        },
        {
            "buffer" : 0,
            "byteLength" : 140904,
            "byteOffset" : 350788,
            "target" : 34962
        },
        {
            "buffer" : 0,
            "byteLength" : 140904,
            "byteOffset" : 491692,
            "target" : 34962
        },
        {
            "buffer" : 0,
            "byteLength" : 93936,
            "byteOffset" : 632596,
            "target" : 34962
        },
        {
            "buffer" : 0,
            "byteLength" : 47262,
            "byteOffset" : 726532,
            "target" : 34963
        },
        {
            "buffer" : 0,
            "byteLength" : 8376,
            "byteOffset" : 773796,
            "target" : 34962
        },
        {
            "buffer" : 0,
            "byteLength" : 8376,
            "byteOffset" : 782172,
            "target" : 34962
        },
        {
            "buffer" : 0,
            "byteLength" : 5584,
            "byteOffset" : 790548,
            "target" : 34962
        },
        {
            "buffer" : 0,
            "byteLength" : 3048,
            "byteOffset" : 796132,
            "target" : 34963
        },
        {
            "buffer" : 0,
            "byteLength" : 156768,
            "byteOffset" : 799180,
            "target" : 34962
        },
        {
            "buffer" : 0,
            "byteLength" : 156768,
            "byteOffset" : 955948,
            "target" : 34962
        },
        {
            "buffer" : 0,
            "byteLength" : 104512,
            "byteOffset" : 1112716,
            "target" : 34962
        },
        {
            "buffer" : 0,
            "byteLength" : 53130,
            "byteOffset" : 1217228,
            "target" : 34963
        },
        {
            "buffer" : 0,
            "byteLength" : 133404,
            "byteOffset" : 1270360,
            "target" : 34962
        },
        {
            "buffer" : 0,
            "byteLength" : 133404,
            "byteOffset" : 1403764,
            "target" : 34962
        },
        {
            "buffer" : 0,
            "byteLength" : 88936,
            "byteOffset" : 1537168,
            "target" : 34962
        },
        {
            "buffer" : 0,
            "byteLength" : 44814,
            "byteOffset" : 1626104,
            "target" : 34963
        }
    ],
    "samplers" : [
        {
            "magFilter" : 9729,
            "minFilter" : 9987
        }
    ],
    "buffers" : [
        {
            "byteLength" : 1670920,
            "uri" : "tea_factory.bin"
        }
    ]
}
